<svg xmlns="http://www.w3.org/2000/svg" viewBox="0 0 64 64" fill="none">
  <circle cx="32" cy="32" r="28" fill="#24292E"/>
  <path d="M32 8C18.7 8 8 18.7 8 32c0 10.6 6.9 19.6 16.4 22.8 1.2.2 1.6-.5 1.6-1.1v-4.2c-6.7 1.5-8.1-2.8-8.1-2.8-1.1-2.8-2.7-3.5-2.7-3.5-2.2-1.5.2-1.5.2-1.5 2.4.2 3.7 2.5 3.7 2.5 2.1 3.7 5.6 2.6 7 2 .2-1.6.8-2.6 1.5-3.2-5.3-.6-10.9-2.7-10.9-11.9 0-2.6.9-4.8 2.5-6.4-.3-.6-1.1-3 .2-6.4 0 0 2-.6 6.5 2.5 1.9-.5 3.9-.8 5.9-.8s4 .3 5.9.8c4.5-3.1 6.5-2.5 6.5-2.5 1.3 3.3.5 5.8.2 6.4 1.5 1.7 2.5 3.8 2.5 6.4 0 9.2-5.6 11.2-10.9 11.8.9.7 1.6 2.2 1.6 4.5v6.6c0 .6.4 1.4 1.6 1.1C49.1 51.6 56 42.6 56 32 56 18.7 45.3 8 32 8z" fill="white"/>
</svg>
